<svg width="24" height="24" viewBox="0 0 24 24" fill="none" xmlns="http://www.w3.org/2000/svg">
<g clip-path="url(#clip0_156_5908)">
<path d="M18.7836 21.821H5.34925C3.5754 21.821 2.13232 20.381 2.13232 18.6108V5.21026C2.13232 3.44 3.5754 2 5.34925 2H18.7836C20.5569 2 22 3.44 22 5.21026V18.6113C22 20.3815 20.5569 21.821 18.7836 21.821ZM8.84566 18.3862H8.84976V9.83641H6.18976V18.3862H8.84514H8.84566ZM7.51796 8.66872C7.72021 8.66899 7.92052 8.62935 8.10742 8.55208C8.29432 8.47481 8.46414 8.36142 8.60715 8.21842C8.75016 8.07541 8.86354 7.90559 8.94081 7.71869C9.01809 7.53179 9.05772 7.33148 9.05745 7.12923C9.05664 6.72118 8.89418 6.33008 8.60565 6.04155C8.31711 5.75301 7.92601 5.59056 7.51796 5.58974C7.10971 5.58988 6.71821 5.75212 6.42953 6.0408C6.14085 6.32948 5.97861 6.72098 5.97848 7.12923C5.97861 7.53749 6.14085 7.92898 6.42953 8.21766C6.71821 8.50634 7.10971 8.66858 7.51796 8.66872ZM18.799 18.3867V13.6995C18.799 11.3964 18.299 9.62462 15.6118 9.62462C14.32 9.62462 13.4528 10.3323 13.0964 11.0041H13.0605V9.83641H10.5133V18.3862H13.1687V14.1554C13.1687 13.0395 13.3805 11.96 14.7636 11.96C16.1236 11.96 16.1436 13.2359 16.1436 14.2272V18.3862H18.799V18.3867Z" fill="white"/>
</g>
<defs>
<clipPath id="clip0_156_5908">
<rect width="20" height="20" fill="white" transform="translate(2 2)"/>
</clipPath>
</defs>
</svg>
